The Wolf Man (1941)

Director: George Waggner

The Wolf Man is a 1941 monster horror film written by Curt Siodmak and produced and directed by George Waggner, starring Lon Chaney, Jr., Claude Rains, Evelyn Ankers, Ralph Bellamy, Patric Knowles, Béla Lugosi, and Maria Ouspenskaya. The title character has had a great deal of influence on Hollywood's depictions of the legend of the werewolf. The film is the second Universal Pictures werewolf movie, preceded six years earlier by the less commercially successful Werewolf of London.
Larry Talbot (Lon Chaney, Jr.) returns to his ancestral home in Llanwelly, Wales to reconcile with his father, Sir John Talbot (Claude Rains), after learning of the death of his brother. While there, Larry becomes romantically interested in a local girl named Gwen Conliffe (Evelyn Ankers), who runs an antique shop. As a pretext, he buys something from her, a silver-headed walking stick decorated with a wolf. Gwen tells him that it represents a werewolf (which she defines as a man who changes into a wolf "at certain times of the year.")

Throughout the film, various villagers recite a poem that all the locals apparently know, whenever the subject of werewolves comes up:

    Even a man who is pure in heart
    and says his prayers by night
    may become a wolf when the wolfbane blooms
    and the autumn moon is bright.

That night, Larry attempts to rescue Gwen's friend Jenny from what he believes to be a sudden attack by a wolf. He kills the beast with his new walking stick, but is bitten in the process. He soon discovers that it was not just a wolf; it was a werewolf, and now Talbot has become one. A gypsy fortuneteller named Maleva (Maria Ouspenskaya) reveals to Larry that the animal which bit him was actually her son Bela (Béla Lugosi) in the form of a wolf. Bela had been a werewolf for years and now the curse of lycanthropy has been passed to Larry.

Sure enough, Talbot prowls the countryside in the form of a two-legged wolf. Struggling to overcome the curse, he is finally bludgeoned to death by his father with his silver walking stick. His father watches in horror as his son transforms back into a human as the police rush to the scene.

Media Info:
General
Complete name                    : C:\Documents and Settings\Owner\Desktop\The Wolf Man (1941)[DVDRip][big_dad_e]\The Wolf Man (1941)[DVDRip][big_dad_e].avi
Format                           : AVI
Format/Info                      : Audio Video Interleave
File size                        : 671 MiB
Duration                         : 1h 9mn
Overall bit rate                 : 1 342 Kbps

Video
ID                               : 0
Format                           : MPEG-4 Visual
Format profile                   : Simple@L1
Format settings, BVOP            : No
Format settings, QPel            : No
Format settings, GMC             : No warppoints
Format settings, Matrix          : Default (H.263)
Codec ID                         : DIVX
Codec ID/Info                    : Project Mayo
Codec ID/Hint                    : DivX 4
Duration                         : 1h 9mn
Bit rate                         : 1 200 Kbps
Width                            : 720 pixels
Height                           : 480 pixels
Display aspect ratio             : 4:3
Frame rate                       : 29.970 fps
Standard                         : NTSC
Resolution                       : 24 bits
Colorimetry                      : 4:2:0
Scan type                        : Progressive
Bits/(Pixel*Frame)               : 0.116
Stream size                      : 600 MiB (89%)
Writing library                  : avc2.0.11.1110

Audio
ID                               : 1
Format                           : MPEG Audio
Format version                   : Version 1
Format profile                   : Layer 3
Codec ID                         : 55
Codec ID/Hint                    : MP3
Duration                         : 1h 9mn
Bit rate mode                    : Constant
Bit rate                         : 128 Kbps
Channel(s)                       : 2 channels
Sampling rate                    : 48.0 KHz
Resolution                       : 16 bits
Stream size                      : 64.0 MiB (10%)
Alignment                        : Aligned on interleaves
Interleave, duration             : 24 ms (0.72 video frame)
Writing library                  : LAME3.96.1

File Scan:
Malwarebytes' Anti-Malware 1.46
www.malwarebytes.org

Database version: 4918

Windows 5.1.2600 Service Pack 3
Internet Explorer 8.0.6001.18702

10/22/2010 4:23:58 PM
mbam-log-2010-10-22 (16-23-58).txt

Scan type: Quick scan
Objects scanned: 7
Time elapsed: 14 second(s)

Memory Processes Infected: 0
Memory Modules Infected: 0
Registry Keys Infected: 0
Registry Values Infected: 0
Registry Data Items Infected: 0
Folders Infected: 0
Files Infected: 0

Memory Processes Infected:
(No malicious items detected)

Memory Modules Infected:
(No malicious items detected)

Registry Keys Infected:
(No malicious items detected)

Registry Values Infected:
(No malicious items detected)

Registry Data Items Infected:
(No malicious items detected)

Folders Infected:
(No malicious items detected)

Files Infected:
(No malicious items detected)

When using TPB please read these important notes:
  
01- Anti-malware apps may warn about keygens, patches, cracks, etc., because of 
    their capabilities, (generating codes, etc.). Sometimes they're added to 
    the virus/spyware database and will be detected as malware. If you don't trust
    the keygens, patches, cracks, etc., don't use them. 
    
02- Before running .exe-files, keygens, patches, cracks, etc., always check first 
    if they can be unpacked. Often some third party added a virus to the 
    original file, repacked it and uploaded it again.

03- Letting anti-malware apps send scan results to their companies can cause
    keygens, patches, cracks, etc., to be added to their virus-database.

04- Firewalls which are set to automatically determine connections will allow 
    apps & malware!. Avoid this by manually configuring your firewall.

05- Usually (new) torrents with many downloads and seeders in a brief period is
    suspicious! Torrents with the Skull & Crossbones icon are trusted.

06- Some people use multiple accounts and post fake comments 
    and/or files trying to spread confusion. They seldom seriously
    comment or have any torrents, or a just a few to look passable.

07- Clicking on unknown links can cause malware to be installed on your machine.
  
08- In general often there are more fake and negative comments than reliable and
    positive comments.

09- In some countries uploading/downloading copyright protected material is 
    forbidden, but showing some appreciation to reliable up-loaders is not.

10- Posting fake and negative comments or fake/infected uploads on TPB can result
    in getting banned from TPB!
 

For reporting bad or suspicious torrents:  
http://forum.suprbay.org/forumdisplay.php?fid=29

For more of my torrents: 
https://thepiratebay.org/user/big_dad_e/  (Secured)

All torrents scanned with:
Norton Anti-virus
Malwarebytes' Anti-malware
 
http://www.pirate-party.us/

ALWAYS SEED & THANKS SEEDERS!

